<?xml version="1.0" standalone="no"?>
<!DOCTYPE svg PUBLIC "-//W3C//DTD SVG 20010904//EN"
 "http://www.w3.org/TR/2001/REC-SVG-20010904/DTD/svg10.dtd">
<svg version="1.0" xmlns="http://www.w3.org/2000/svg"
 width="2268.000000pt" height="2268.000000pt" viewBox="0 0 2268.000000 2268.000000"
 preserveAspectRatio="xMidYMid meet">

<g transform="translate(0.000000,2268.000000) scale(0.100000,-0.100000)"
fill="#000000" stroke="none">
<path d="M7671 20139 c-602 -53 -1088 -268 -1470 -648 -317 -316 -523 -691
-605 -1101 -36 -182 -41 -239 -40 -480 0 -205 4 -264 22 -360 65 -356 207
-663 438 -951 295 -366 805 -720 1823 -1263 728 -389 1019 -573 1252 -794 211
-200 363 -437 449 -700 137 -423 109 -956 -70 -1313 -217 -430 -668 -721
-1212 -780 -223 -25 -500 4 -718 73 -129 41 -333 140 -460 225 -426 282 -830
792 -1090 1373 -118 262 -240 601 -326 902 l-39 138 -77 0 -78 0 0 -4520 0
-4520 80 0 80 0 0 3141 0 3141 46 59 c50 65 122 123 199 161 90 44 140 53 300
53 l150 -1 125 -43 c69 -24 213 -76 320 -116 439 -164 715 -234 1085 -277 143
-16 559 -16 700 1 663 78 1170 321 1606 768 192 196 308 360 424 598 107 218
172 427 212 685 26 166 26 667 0 825 -46 279 -110 483 -221 710 -248 504 -662
903 -1291 1243 -148 80 -262 133 -1040 484 -220 99 -457 209 -526 243 -842
422 -1229 922 -1196 1545 20 371 159 677 420 927 115 109 216 180 350 243 449
214 1008 140 1528 -201 189 -125 353 -274 516 -469 271 -325 397 -589 533
-1115 l47 -180 117 -3 116 -3 0 1116 0 1115 -165 0 -164 0 -49 -72 c-61 -91
-136 -162 -205 -193 -109 -51 -241 -26 -537 100 -305 131 -498 188 -745 220
-146 20 -472 27 -614 14z"/>
<path d="M11950 13115 c-213 -40 -424 -189 -533 -375 -132 -227 -141 -583 -21
-828 138 -282 430 -432 794 -408 297 19 485 149 553 383 15 49 14 51 -4 56
-16 4 -25 -8 -53 -68 -60 -130 -149 -203 -291 -240 -124 -32 -255 -15 -394 51
-91 42 -209 157 -258 249 -76 145 -123 374 -108 525 l7 70 539 0 539 0 0 38
c0 62 -27 168 -60 238 -38 79 -136 186 -212 231 -132 79 -330 110 -498 78z
m250 -56 c132 -61 213 -199 236 -399 l7 -60 -397 0 c-218 0 -396 3 -396 8 0
31 45 182 66 225 34 68 96 149 141 183 102 78 233 94 343 43z"/>
<path d="M13255 13100 c-110 -16 -219 -31 -242 -35 -32 -5 -43 -11 -43 -24 0
-13 14 -20 61 -29 74 -16 126 -59 160 -135 l24 -52 0 -515 c0 -552 -1 -566
-51 -643 -28 -43 -98 -80 -171 -92 -33 -5 -43 -11 -43 -26 0 -18 13 -19 405
-19 396 0 405 0 405 20 0 14 -11 22 -42 30 -73 18 -117 42 -152 80 -61 68 -61
69 -61 575 0 411 2 467 18 525 37 134 114 224 234 271 47 19 77 23 163 24 95
0 111 -3 168 -29 82 -38 135 -98 164 -185 21 -63 22 -85 26 -505 4 -467 -2
-567 -39 -643 -29 -59 -74 -91 -158 -111 -55 -13 -71 -20 -71 -34 0 -17 22
-18 405 -18 396 0 405 0 405 20 0 14 -10 22 -42 29 -24 6 -68 24 -98 39 -47
24 -60 37 -85 87 l-30 59 -5 531 -5 530 -33 67 c-53 107 -159 184 -302 219
-79 19 -280 17 -360 -4 -94 -25 -215 -88 -292 -152 l-68 -57 0 41 c0 69 -22
191 -34 190 -6 -1 -101 -14 -211 -29z"/>
<path d="M15401 13119 c-221 -43 -372 -259 -332 -476 31 -166 124 -260 421
-423 211 -115 261 -157 308 -258 51 -111 25 -272 -55 -342 -68 -60 -109 -75
-208 -75 -79 0 -96 4 -143 28 -134 71 -249 237 -304 440 -6 26 -18 47 -25 47
-10 0 -13 -55 -13 -265 0 -229 2 -265 15 -265 8 0 15 5 15 10 0 16 63 50 93
50 16 0 81 -18 146 -40 137 -47 234 -58 337 -41 182 32 326 152 375 313 18 58
21 87 17 171 -6 113 -21 160 -76 246 -63 96 -131 141 -432 284 -170 81 -235
132 -270 210 -28 60 -26 149 4 212 121 257 491 150 589 -171 17 -57 26 -74 41
-74 20 0 20 -5 0 308 -7 101 -15 110 -58 67 -32 -32 -64 -32 -126 0 -99 50
-210 66 -319 44z"/>
<path d="M16946 13115 c-209 -40 -420 -189 -529 -375 -103 -177 -135 -454 -77
-675 36 -140 92 -237 195 -341 74 -75 105 -99 175 -133 140 -68 218 -84 410
-84 138 0 178 3 243 21 197 54 327 176 380 359 15 49 14 51 -4 56 -16 4 -25
-8 -53 -68 -77 -167 -222 -255 -421 -255 -220 0 -433 136 -533 340 -70 145
-111 352 -97 497 l7 73 540 0 541 0 -7 69 c-22 247 -188 440 -432 506 -85 23
-243 28 -338 10z m254 -57 c73 -36 144 -109 180 -183 26 -56 60 -196 60 -251
l0 -24 -395 0 c-217 0 -395 3 -395 8 0 4 9 45 20 91 45 187 165 335 310 382
52 17 162 5 220 -23z"/>
<path d="M9830 10911 l0 -59 78 -6 c567 -49 911 -297 1026 -737 59 -228 76
-508 76 -1271 l0 -578 610 0 610 0 0 1271 0 1271 568 -5 c590 -5 726 -13 999
-57 728 -118 1343 -480 1834 -1081 492 -601 795 -1362 896 -2250 25 -218 25
-800 0 -1017 -105 -922 -445 -1700 -986 -2256 -461 -474 -973 -682 -1732 -703
-562 -16 -949 99 -1207 359 -224 226 -314 458 -352 913 -6 72 -14 381 -17 688
l-6 557 -608 0 -609 0 0 -547 c-1 -904 -27 -1180 -138 -1417 -50 -105 -89
-163 -166 -245 -158 -166 -325 -252 -591 -304 l-110 -21 -2267 -3 -2268 -3 0
-60 0 -60 4333 0 c2799 0 4406 4 4542 10 509 25 1002 93 1340 186 366 101 720
279 1013 511 130 102 369 344 463 468 643 846 887 2050 663 3265 -139 752
-496 1481 -986 2015 -308 336 -656 599 -1052 795 -382 189 -764 304 -1221 369
-383 55 -650 60 -2892 61 l-1843 0 0 -59z"/>
</g>
</svg>
